<?xml version="1.0" encoding="UTF-8"?>
<svg id="Layer_2" data-name="Layer 2" xmlns="http://www.w3.org/2000/svg" xmlns:xlink="http://www.w3.org/1999/xlink" viewBox="0 0 334.73 355.4">
  <defs>
    <style>
      .cls-1 {
        fill: url(#linear-gradient-2);
      }

      .cls-2 {
        fill: #fff;
      }

      .cls-3 {
        fill: url(#linear-gradient-4);
      }

      .cls-4 {
        fill: url(#linear-gradient-3);
      }

      .cls-5 {
        fill: url(#linear-gradient);
      }
    </style>
    <linearGradient id="linear-gradient" x1="96.64" y1="-7.15" x2="257.53" y2="185.83" gradientUnits="userSpaceOnUse">
      <stop offset="0" stop-color="#cda984"/>
      <stop offset="1" stop-color="#b48a65"/>
    </linearGradient>
    <linearGradient id="linear-gradient-2" x1="97.93" y1="-8.22" x2="258.82" y2="184.75" xlink:href="#linear-gradient"/>
    <linearGradient id="linear-gradient-3" x1="101.3" y1="-11.04" x2="262.19" y2="181.94" xlink:href="#linear-gradient"/>
    <linearGradient id="linear-gradient-4" x1="100.01" y1="-9.96" x2="260.9" y2="183.02" xlink:href="#linear-gradient"/>
  </defs>
  <g id="Layer_1-2" data-name="Layer 1">
    <g>
      <g>
        <path class="cls-5" d="M167.37,191.1c-41.32,0-74.94-33.61-74.94-74.93V12.1h8v104.07c0,36.91,30.03,66.93,66.94,66.93s66.93-30.02,66.93-66.93V12.1h8v104.07c0,41.32-33.61,74.93-74.93,74.93Z"/>
        <path class="cls-1" d="M167.37,210.1c-51.8,0-93.94-42.14-93.94-93.93V0h8v116.17c0,47.38,38.55,85.93,85.94,85.93s85.93-38.55,85.93-85.93V0h8v116.17c0,51.79-42.14,93.93-93.93,93.93Z"/>
        <path class="cls-4" d="M167.37,172.1c-30.85,0-55.94-25.09-55.94-55.93V0h8v116.17c0,26.43,21.51,47.93,47.94,47.93s47.93-21.5,47.93-47.93V0h8v116.17c0,30.84-25.09,55.93-55.93,55.93Z"/>
        <path class="cls-3" d="M167.37,153.1c-9.87,0-19.14-3.84-26.13-10.81-6.97-6.97-10.81-16.25-10.81-26.12V12.1h8v104.07c0,7.73,3.01,15,8.47,20.46,5.47,5.46,12.74,8.47,20.47,8.47,15.95,0,28.93-12.98,28.93-28.93V12.1h8v104.07c0,20.36-16.57,36.93-36.93,36.93Z"/>
      </g>
      <g>
        <g>
          <path class="cls-2" d="M5.62,296.04c-3.74-3.84-5.62-9.36-5.62-16.56v-28.66h7.2v28.37c0,10.8,4.73,16.2,14.18,16.2,4.61,0,8.14-1.33,10.58-4,2.45-2.66,3.67-6.73,3.67-12.2v-28.37h6.98v28.66c0,7.25-1.87,12.78-5.62,16.6-3.74,3.82-8.98,5.72-15.7,5.72s-11.95-1.92-15.7-5.76Z"/>
          <path class="cls-2" d="M112.25,250.82v50.4h-5.9l-30.24-37.58v37.58h-7.2v-50.4h5.9l30.24,37.58v-37.58h7.2Z"/>
          <path class="cls-2" d="M138.89,250.82h7.2v50.4h-7.2v-50.4Z"/>
          <path class="cls-2" d="M182.74,257.09h-17.28v-6.26h41.69v6.26h-17.28v44.14h-7.13v-44.14Z"/>
          <path class="cls-2" d="M263.09,294.96v6.26h-36.58v-50.4h35.57v6.26h-28.37v15.48h25.27v6.12h-25.27v16.27h29.38Z"/>
          <path class="cls-2" d="M286.27,250.82h21.24c5.33,0,10.06,1.06,14.18,3.17,4.13,2.11,7.33,5.08,9.61,8.89,2.28,3.82,3.42,8.2,3.42,13.14s-1.14,9.32-3.42,13.14c-2.28,3.82-5.48,6.78-9.61,8.89-4.13,2.11-8.86,3.17-14.18,3.17h-21.24v-50.4ZM307.08,294.96c4.08,0,7.67-.79,10.76-2.38s5.48-3.8,7.16-6.66c1.68-2.86,2.52-6.16,2.52-9.9s-.84-7.04-2.52-9.9c-1.68-2.86-4.07-5.08-7.16-6.66s-6.68-2.38-10.76-2.38h-13.61v37.87h13.61Z"/>
        </g>
        <g>
          <path class="cls-2" d="M23.79,327.11c2.29,1.91,3.43,4.53,3.43,7.88s-1.14,5.97-3.43,7.88c-2.29,1.91-5.43,2.86-9.42,2.86h-7.61v9.33H2.36v-30.8h12.01c3.99,0,7.13.95,9.42,2.86ZM20.62,340.11c1.47-1.19,2.2-2.9,2.2-5.13s-.73-3.94-2.2-5.13c-1.47-1.19-3.59-1.78-6.38-1.78h-7.48v13.82h7.48c2.79,0,4.91-.59,6.38-1.78Z"/>
          <path class="cls-2" d="M59.56,355.05l-6.64-9.46c-.82.06-1.47.09-1.94.09h-7.61v9.37h-4.4v-30.8h12.01c3.99,0,7.13.95,9.42,2.86,2.29,1.91,3.43,4.53,3.43,7.88,0,2.38-.59,4.4-1.76,6.07s-2.85,2.89-5.02,3.65l7.3,10.34h-4.8ZM57.23,340.13c1.47-1.2,2.2-2.92,2.2-5.15s-.73-3.94-2.2-5.13c-1.47-1.19-3.59-1.78-6.38-1.78h-7.48v13.86h7.48c2.79,0,4.91-.6,6.38-1.8Z"/>
          <path class="cls-2" d="M81.74,353.36c-2.49-1.36-4.45-3.25-5.87-5.65-1.42-2.41-2.13-5.09-2.13-8.05s.71-5.65,2.13-8.05c1.42-2.4,3.38-4.29,5.87-5.65,2.49-1.36,5.29-2.05,8.4-2.05s5.87.68,8.36,2.05c2.49,1.36,4.44,3.24,5.85,5.63,1.41,2.39,2.11,5.08,2.11,8.07s-.7,5.68-2.11,8.07c-1.41,2.39-3.36,4.27-5.85,5.63-2.49,1.36-5.28,2.05-8.36,2.05s-5.91-.68-8.4-2.05ZM96.24,349.95c1.8-1.03,3.23-2.44,4.27-4.25,1.04-1.8,1.56-3.82,1.56-6.05s-.52-4.25-1.56-6.05-2.46-3.22-4.27-4.25c-1.8-1.03-3.84-1.54-6.09-1.54s-4.31.51-6.14,1.54c-1.83,1.03-3.27,2.44-4.31,4.25-1.04,1.8-1.56,3.82-1.56,6.05s.52,4.25,1.56,6.05c1.04,1.8,2.48,3.22,4.31,4.25,1.83,1.03,3.88,1.54,6.14,1.54s4.29-.51,6.09-1.54Z"/>
          <path class="cls-2" d="M139.91,327.11c2.29,1.91,3.43,4.53,3.43,7.88s-1.14,5.97-3.43,7.88c-2.29,1.91-5.43,2.86-9.42,2.86h-7.61v9.33h-4.4v-30.8h12.01c3.99,0,7.13.95,9.42,2.86ZM136.74,340.11c1.47-1.19,2.2-2.9,2.2-5.13s-.73-3.94-2.2-5.13c-1.47-1.19-3.59-1.78-6.38-1.78h-7.48v13.82h7.48c2.79,0,4.91-.59,6.38-1.78Z"/>
          <path class="cls-2" d="M177.44,351.22v3.83h-22.35v-30.8h21.74v3.83h-17.34v9.46h15.44v3.74h-15.44v9.94h17.95Z"/>
          <path class="cls-2" d="M210.44,355.05l-6.64-9.46c-.82.06-1.47.09-1.94.09h-7.61v9.37h-4.4v-30.8h12.01c3.99,0,7.13.95,9.42,2.86,2.29,1.91,3.43,4.53,3.43,7.88,0,2.38-.59,4.4-1.76,6.07s-2.85,2.89-5.02,3.65l7.3,10.34h-4.8ZM208.11,340.13c1.47-1.2,2.2-2.92,2.2-5.15s-.73-3.94-2.2-5.13c-1.47-1.19-3.59-1.78-6.38-1.78h-7.48v13.86h7.48c2.79,0,4.91-.6,6.38-1.8Z"/>
          <path class="cls-2" d="M232.79,328.08h-10.56v-3.83h25.48v3.83h-10.56v26.97h-4.36v-26.97Z"/>
          <path class="cls-2" d="M257.78,324.25h4.4v30.8h-4.4v-30.8Z"/>
          <path class="cls-2" d="M299.05,351.22v3.83h-22.35v-30.8h21.74v3.83h-17.34v9.46h15.44v3.74h-15.44v9.94h17.95Z"/>
          <path class="cls-2" d="M313.73,354.32c-2.16-.72-3.85-1.65-5.08-2.79l1.63-3.43c1.17,1.06,2.68,1.91,4.51,2.57,1.83.66,3.72.99,5.65.99,2.55,0,4.46-.43,5.72-1.3,1.26-.87,1.89-2.02,1.89-3.45,0-1.06-.34-1.91-1.03-2.57s-1.54-1.17-2.55-1.52c-1.01-.35-2.44-.75-4.29-1.19-2.32-.56-4.19-1.11-5.61-1.67-1.42-.56-2.64-1.42-3.65-2.57-1.01-1.16-1.52-2.72-1.52-4.69,0-1.64.43-3.12,1.3-4.44s2.18-2.38,3.94-3.17,3.94-1.19,6.56-1.19c1.82,0,3.61.24,5.37.7,1.76.47,3.27,1.14,4.53,2.02l-1.45,3.52c-1.29-.82-2.67-1.44-4.14-1.87-1.47-.42-2.9-.64-4.31-.64-2.49,0-4.36.46-5.61,1.36-1.25.91-1.87,2.08-1.87,3.52,0,1.06.35,1.91,1.06,2.57s1.58,1.17,2.62,1.54c1.04.37,2.46.76,4.25,1.17,2.32.56,4.18,1.12,5.59,1.67,1.41.56,2.62,1.41,3.63,2.55,1.01,1.14,1.52,2.68,1.52,4.62,0,1.61-.44,3.09-1.32,4.42-.88,1.34-2.21,2.39-4,3.17-1.79.78-3.99,1.17-6.6,1.17-2.32,0-4.55-.36-6.71-1.08Z"/>
        </g>
      </g>
    </g>
  </g>
</svg>